# xmcd
#
# Track frame offsets: 
#        150
#        18535
#        33289
#        49717
#        66724
#        82712
#        100235
#        116414
#        131021
#        141469
#        157682
#        176836
#
# Disc length: 2547 seconds
#
# Revision: 0
# Processed by: cddbd v1.5.2PL0 Copyright (c) Steve Scherf et al.
# Submitted via: ExactAudioCopy v0.99pb5
#
DISCID=9e09f10c
DTITLE=K‰denj‰lki - Jorma K‰‰ri‰inen
DYEAR=2009
DGENRE=Rautalanka
TTITLE0=Yksin‰isten miesten kanjoni
TTITLE1=S‰ l‰hdit luotani t‰n‰‰n
TTITLE2=Memphis Tennessee
TTITLE3=Yhden t‰hden hotelli
TTITLE4=Kyyneleit‰
TTITLE5=Pilvenpiirt‰j‰
TTITLE6=M‰ luokses j‰‰n
TTITLE7=Hengenahdistusta
TTITLE8=Vida Lee
TTITLE9=Anna mun palaa
TTITLE10=Soittaja
TTITLE11=Alle kultaisen kuun
EXTD=
EXTT0=
EXTT1=
EXTT2=
EXTT3=
EXTT4=
EXTT5=
EXTT6=
EXTT7=
EXTT8=
EXTT9=
EXTT10=
EXTT11=
PLAYORDER=
